<svg width="512" height="512" viewBox="0 0 512 512" fill="none" xmlns="http://www.w3.org/2000/svg">
  <defs>
    <linearGradient id="bg" x1="72" y1="64" x2="440" y2="448" gradientUnits="userSpaceOnUse">
      <stop stop-color="#16323F"/>
      <stop offset="1" stop-color="#1F6F78"/>
    </linearGradient>
    <linearGradient id="terminal" x1="128" y1="144" x2="280" y2="336" gradientUnits="userSpaceOnUse">
      <stop stop-color="#F4F7F5"/>
      <stop offset="1" stop-color="#D4E7DF"/>
    </linearGradient>
    <linearGradient id="phone" x1="304" y1="168" x2="392" y2="360" gradientUnits="userSpaceOnUse">
      <stop stop-color="#EAF7FF"/>
      <stop offset="1" stop-color="#C7E3F4"/>
    </linearGradient>
    <filter id="shadow" x="56" y="56" width="400" height="400" filterUnits="userSpaceOnUse" color-interpolation-filters="sRGB">
      <feFlood flood-opacity="0" result="BackgroundImageFix"/>
      <feColorMatrix in="SourceAlpha" type="matrix" values="0 0 0 0 0 0 0 0 0 0 0 0 0 0 0 0 0 0 127 0" result="hardAlpha"/>
      <feOffset dy="16"/>
      <feGaussianBlur stdDeviation="16"/>
      <feComposite in2="hardAlpha" operator="out"/>
      <feColorMatrix type="matrix" values="0 0 0 0 0.042 0 0 0 0 0.086 0 0 0 0 0.105 0 0 0 0.28 0"/>
      <feBlend mode="normal" in2="BackgroundImageFix" result="effect1_dropShadow_1_1"/>
      <feBlend mode="normal" in="SourceGraphic" in2="effect1_dropShadow_1_1" result="shape"/>
    </filter>
  </defs>

  <g filter="url(#shadow)">
    <rect x="72" y="72" width="368" height="368" rx="88" fill="url(#bg)"/>
  </g>

  <rect x="120" y="140" width="176" height="156" rx="28" fill="#0F1E25" fill-opacity="0.34"/>
  <rect x="128" y="148" width="176" height="156" rx="28" fill="url(#terminal)"/>
  <path d="M176 204L210 232L176 260" stroke="#1D5B63" stroke-width="20" stroke-linecap="round" stroke-linejoin="round"/>
  <path d="M232 260H264" stroke="#1D5B63" stroke-width="20" stroke-linecap="round"/>

  <path d="M314 176H378C389.046 176 398 184.954 398 196V336C398 347.046 389.046 356 378 356H314C302.954 356 294 347.046 294 336V196C294 184.954 302.954 176 314 176Z" fill="#0F1E25" fill-opacity="0.34"/>
  <path d="M320 184H384C395.046 184 404 192.954 404 204V344C404 355.046 395.046 364 384 364H320C308.954 364 300 355.046 300 344V204C300 192.954 308.954 184 320 184Z" fill="url(#phone)"/>
  <rect x="320" y="208" width="64" height="108" rx="12" fill="#1F6F78" fill-opacity="0.12"/>
  <rect x="340" y="328" width="24" height="8" rx="4" fill="#1D5B63" fill-opacity="0.5"/>

  <circle cx="294" cy="208" r="10" fill="#89D0D8"/>
  <circle cx="320" cy="190" r="8" fill="#89D0D8"/>
  <circle cx="346" cy="178" r="6" fill="#89D0D8"/>
  <path d="M258 224C278 210 297 198 316 190" stroke="#89D0D8" stroke-width="10" stroke-linecap="round" stroke-dasharray="1 18"/>
</svg>
